<svg width="17" height="18" viewBox="0 0 17 18" fill="none" xmlns="http://www.w3.org/2000/svg">
<path d="M8.954 8.60902L11.911 5.65202L2.36 0.284016C1.727 -0.0579843 1.134 -0.105984 0.614 0.268016L8.954 8.60902ZM12.415 12.071L15.489 10.342C16.089 10.006 16.418 9.53002 16.418 9.00202C16.418 8.47502 16.089 7.99802 15.49 7.66202L12.707 6.09902L9.574 9.23102L12.415 12.071ZM0.0999999 0.995016C0.0359999 1.19202 0 1.41202 0 1.65302V16.358C0 16.739 0.0840001 17.067 0.236 17.328L8.333 9.23002L0.0999999 0.995016ZM8.954 9.85002L0.902 17.903C1.05667 17.963 1.22167 17.993 1.397 17.993C1.71033 17.993 2.033 17.901 2.365 17.717L11.62 12.52L8.954 9.85002Z" fill="#013941"/>
</svg>
