<svg width="25" height="24" viewBox="0 0 25 24" fill="none" xmlns="http://www.w3.org/2000/svg">
<path d="M17.468 20.28C16.488 21.23 15.418 21.08 14.388 20.63C13.298 20.17 12.298 20.15 11.148 20.63C9.70799 21.25 8.948 21.07 8.088 20.28C3.208 15.25 3.928 7.59 9.468 7.31C10.818 7.38 11.758 8.05 12.548 8.11C13.728 7.87 14.858 7.18 16.118 7.27C17.628 7.39 18.768 7.99 19.518 9.07C16.398 10.94 17.138 15.05 19.998 16.2C19.428 17.7 18.688 19.19 17.458 20.29L17.468 20.28ZM12.448 7.25C12.298 5.02 14.108 3.18 16.188 3C16.478 5.58 13.848 7.5 12.448 7.25Z" fill="#013941"/>
</svg>
