<svg width="324" height="234" viewBox="0 0 324 234" fill="none" xmlns="http://www.w3.org/2000/svg">
<rect x="1.66934" y="62.2003" width="300" height="200" rx="30" transform="rotate(-10 1.66934 62.2003)" fill="#013941"/>
<rect x="8.1586" y="52.9327" width="300" height="200" rx="30" transform="rotate(-10 8.1586 52.9327)" fill="#00D47E"/>
<path fill-rule="evenodd" clip-rule="evenodd" d="M205.711 43.4645C205.585 43.8767 205.673 44.3719 205.847 45.3622L206.72 50.3131C206.895 51.3034 206.982 51.7986 207.242 52.1428C207.47 52.4456 207.788 52.6684 208.151 52.7793C208.563 52.9053 209.058 52.818 210.048 52.6434L214.999 51.7704C215.99 51.5958 216.485 51.5085 216.829 51.2491C217.132 51.0209 217.355 50.7027 217.465 50.3401C217.592 49.9279 217.504 49.4327 217.33 48.4424L216.457 43.4915C216.282 42.5012 216.195 42.006 215.935 41.6618C215.707 41.3589 215.389 41.1361 215.026 41.0253C214.614 40.8993 214.119 40.9866 213.129 41.1612L208.178 42.0342C207.187 42.2088 206.692 42.2961 206.348 42.5555C206.045 42.7837 205.822 43.1019 205.711 43.4645ZM213.067 46.6979C212.989 46.6698 212.949 46.5839 212.977 46.5061L213.833 44.1399C213.883 44.0018 213.725 43.8818 213.605 43.9669L209.295 44.3418C209.288 44.3464 209.274 44.3544 209.253 44.3659C208.958 44.5314 207.375 45.4169 209.761 46.9892L209.067 49.1678C209.701 50.2217 211.491 49.1105 212.024 48.78C212.123 48.7181 212.179 48.6835 212.175 48.6958L210.887 50.231C210.837 50.3691 210.995 50.4891 211.114 50.404L214.994 47.6446C215.092 47.5746 215.071 47.4228 214.958 47.3817L213.067 46.6979Z" fill="#013941"/>
<path d="M222.183 48.4012L220.351 48.7241L219.2 42.1932L221.148 41.8497L223.391 43.9769L224.61 45.3097L224.737 45.2874L224.398 43.8797L223.953 41.3551L225.784 41.0322L226.936 47.5631L224.988 47.9066L222.616 45.7318L221.561 44.5911L221.434 44.6134L221.732 45.8474L222.183 48.4012Z" fill="#013941"/>
<path d="M231.057 46.9369C228.787 47.3371 227.21 46.2485 226.85 44.2112C226.491 42.174 227.602 40.6113 229.871 40.2111C232.199 39.8006 233.757 40.8927 234.117 42.93C234.476 44.9672 233.385 46.5264 231.057 46.9369ZM230.748 45.1824C232.072 44.9488 232.397 44.5699 232.169 43.2735C231.94 41.977 231.505 41.7321 230.18 41.9657C228.856 42.1992 228.57 42.5713 228.798 43.8677C229.027 45.1641 229.423 45.4159 230.748 45.1824Z" fill="#013941"/>
<path d="M240.041 45.2523L237.411 45.716L233.64 39.6471L235.851 39.2572L238.361 43.6389L238.487 43.6166L239.309 38.6475L241.51 38.2594L240.041 45.2523Z" fill="#013941"/>
<path d="M244.523 44.4621L242.467 44.8244L244.131 37.7972L246.751 37.3352L250.727 43.368L248.623 43.739L247.914 42.6179L244.816 43.164L244.523 44.4621ZM245.436 40.4115L245.217 41.3948L246.951 41.089L246.41 40.2398L245.787 39.2139L245.66 39.2362L245.436 40.4115Z" fill="#013941"/>
<path d="M254.447 42.8126C252.178 43.2128 250.609 42.1224 250.25 40.0852C249.891 38.0479 250.992 36.487 253.261 36.0868C255.453 35.7004 256.952 36.5115 257.259 38.2563L257.289 38.422L255.243 38.7827L255.214 38.617C255.083 37.8762 254.681 37.6456 253.6 37.8362C252.275 38.0698 251.97 38.4453 252.198 39.7417C252.427 41.0381 252.842 41.2865 254.167 41.0529C255.248 40.8623 255.547 40.508 255.417 39.7672L255.387 39.6015L257.433 39.2408L257.462 39.4065C257.77 41.1513 256.639 42.4262 254.447 42.8126Z" fill="#013941"/>
<path d="M260.25 41.6889L258.419 42.0118L257.267 35.4809L261.076 34.8094C262.8 34.5054 263.833 35.0669 264.058 36.3439C264.24 37.3771 263.832 38.0822 262.613 38.458L262.63 38.5555C263.333 38.6125 263.604 38.8964 263.936 39.3505L265.033 40.8456L262.919 41.2183L261.858 39.7571C261.538 39.3109 261.319 39.2088 260.608 39.3342L259.858 39.4664L260.25 41.6889ZM259.389 36.8053L259.618 38.1018L261.575 37.7566C262.111 37.6621 262.289 37.5303 262.191 36.9747C262.1 36.458 261.883 36.3657 261.347 36.4601L259.389 36.8053Z" fill="#013941"/>
<path d="M268.634 40.311C266.355 40.7129 265.109 39.797 264.803 38.0619L264.134 34.2701L265.965 33.9472L266.608 37.5928C266.772 38.5188 267.084 38.7551 268.321 38.537C269.558 38.3189 269.772 37.9898 269.608 37.0638L268.966 33.4182L270.797 33.0953L271.465 36.8871C271.771 38.6222 270.914 39.9092 268.634 40.311Z" fill="#013941"/>
<path d="M275.68 39.0687C273.683 39.4208 272.34 38.9239 272.048 37.2668L272.037 37.2084L273.869 36.8855L273.905 37.0902C273.982 37.5288 274.159 37.6183 275.386 37.4019C276.496 37.2061 276.598 37.0978 276.546 36.8053C276.505 36.5714 276.361 36.4962 275.813 36.5225L273.72 36.6102C272.473 36.6592 271.744 36.1143 271.558 35.0616C271.375 34.0186 271.991 32.7843 274.348 32.3687C276.422 32.0028 277.576 32.7342 277.834 34.1963L277.844 34.2548L276.013 34.5777L275.987 34.4315C275.904 33.9636 275.672 33.8437 274.445 34.0601C273.51 34.225 273.328 34.3878 273.378 34.6705C273.414 34.8752 273.548 34.952 273.907 34.9389L276.006 34.8804C277.645 34.8327 278.217 35.5759 278.365 36.4142C278.563 37.5352 277.881 38.6806 275.68 39.0687Z" fill="#013941"/>
<path d="M283.149 37.6512L281.318 37.9741L280.457 33.0905L278.148 33.4976L277.858 31.8503L284.296 30.715L284.587 32.3623L282.288 32.7677L283.149 37.6512Z" fill="#013941"/>
<circle cx="72.0553" cy="208.166" r="11.9701" transform="rotate(-10 72.0553 208.166)" fill="#FFBC0E"/>
<circle cx="83.8435" cy="206.087" r="11.9701" transform="rotate(-10 83.8435 206.087)" fill="#F56132"/>
<path d="M251.054 180.695L246.334 173.092L247.537 172.88L251.456 179.324L251.02 179.401L252.523 172.001L253.714 171.791L251.856 180.554L251.054 180.695ZM256.317 179.767L255.33 174.168L256.391 173.981L257.378 179.58L256.317 179.767ZM255.663 172.954C255.466 172.989 255.294 172.955 255.146 172.851C254.997 172.74 254.905 172.586 254.87 172.389C254.837 172.201 254.872 172.032 254.976 171.884C255.078 171.729 255.227 171.633 255.424 171.599C255.62 171.564 255.793 171.603 255.942 171.714C256.09 171.818 256.181 171.964 256.214 172.152C256.249 172.349 256.215 172.525 256.113 172.681C256.009 172.829 255.859 172.92 255.663 172.954ZM258.942 179.304L257.954 173.705L259.015 173.518L260.003 179.117L258.942 179.304ZM259.439 175.923L259.007 175.817C258.881 175.101 258.946 174.503 259.201 174.02C259.456 173.537 259.894 173.241 260.515 173.132C260.798 173.082 261.062 173.088 261.308 173.15C261.553 173.204 261.794 173.328 262.03 173.521L261.461 174.363C261.321 174.258 261.176 174.19 261.025 174.16C260.873 174.13 260.704 174.132 260.515 174.165C260.122 174.234 259.822 174.417 259.615 174.713C259.408 175.009 259.349 175.412 259.439 175.923ZM264.511 178.323L263.11 170.377L264.171 170.19L265.571 178.135L264.511 178.323ZM262.314 173.933L262.144 172.966L265.963 172.293L266.134 173.259L262.314 173.933ZM270.262 177.43C269.807 177.51 269.376 177.481 268.971 177.342C268.572 177.193 268.237 176.952 267.968 176.619C267.699 176.286 267.521 175.875 267.435 175.388L266.861 172.135L267.922 171.947L268.488 175.154C268.542 175.46 268.64 175.719 268.782 175.928C268.931 176.129 269.118 176.27 269.343 176.352C269.568 176.434 269.818 176.451 270.093 176.402C270.51 176.329 270.813 176.142 271.003 175.841C271.192 175.532 271.245 175.146 271.163 174.682L270.598 171.476L271.659 171.289L272.233 174.542C272.319 175.029 272.292 175.476 272.153 175.881C272.014 176.286 271.782 176.627 271.458 176.903C271.14 177.17 270.742 177.345 270.262 177.43ZM276.47 176.335C275.959 176.425 275.474 176.381 275.013 176.203C274.551 176.017 274.159 175.726 273.838 175.329C273.524 174.93 273.319 174.456 273.222 173.906C273.125 173.356 273.156 172.84 273.314 172.358C273.48 171.875 273.744 171.468 274.107 171.136C274.478 170.804 274.923 170.592 275.441 170.5C275.866 170.425 276.259 170.449 276.621 170.572C276.989 170.685 277.303 170.881 277.563 171.159C277.822 171.43 277.999 171.767 278.094 172.172L278.391 173.857C278.439 174.262 278.388 174.64 278.239 174.99C278.098 175.339 277.874 175.634 277.568 175.874C277.268 176.105 276.903 176.259 276.47 176.335ZM276.47 175.302C276.997 175.209 277.39 174.958 277.65 174.547C277.909 174.129 277.989 173.641 277.89 173.083C277.822 172.698 277.689 172.377 277.49 172.12C277.297 171.854 277.053 171.666 276.758 171.556C276.462 171.438 276.137 171.411 275.783 171.473C275.429 171.535 275.13 171.673 274.884 171.887C274.646 172.099 274.474 172.364 274.368 172.683C274.268 172.992 274.251 173.331 274.316 173.701C274.383 174.078 274.516 174.399 274.717 174.663C274.924 174.918 275.18 175.104 275.484 175.221C275.788 175.337 276.117 175.364 276.47 175.302ZM278.312 175.889L278.046 174.38L278.005 172.977L277.566 171.657L277.325 170.29L278.397 170.1L279.385 175.7L278.312 175.889ZM280.929 175.427L279.445 167.011L280.506 166.824L281.99 175.24L280.929 175.427ZM288.574 174.201C288.023 174.298 287.501 174.256 287.008 174.076C286.522 173.894 286.111 173.606 285.774 173.212C285.443 172.808 285.23 172.335 285.135 171.793C285.038 171.243 285.076 170.726 285.25 170.241C285.432 169.755 285.72 169.348 286.116 169.019C286.518 168.681 286.994 168.463 287.545 168.366C287.977 168.29 288.392 168.302 288.791 168.402C289.188 168.494 289.547 168.669 289.868 168.929L289.286 169.761C289.077 169.587 288.837 169.471 288.568 169.413C288.305 169.346 288.024 169.339 287.725 169.392C287.372 169.454 287.072 169.592 286.826 169.805C286.579 170.011 286.401 170.269 286.294 170.58C286.187 170.89 286.166 171.23 286.231 171.6C286.296 171.969 286.432 172.281 286.639 172.537C286.846 172.792 287.102 172.978 287.406 173.094C287.71 173.211 288.039 173.238 288.393 173.176C288.691 173.123 288.953 173.024 289.179 172.879C289.411 172.725 289.6 172.529 289.744 172.293L290.564 172.878C290.358 173.222 290.08 173.51 289.732 173.742C289.392 173.972 289.006 174.125 288.574 174.201ZM294.049 173.236C293.538 173.326 293.052 173.282 292.592 173.104C292.129 172.918 291.738 172.626 291.416 172.229C291.103 171.831 290.898 171.356 290.801 170.806C290.704 170.256 290.734 169.74 290.893 169.259C291.059 168.775 291.323 168.368 291.686 168.037C292.057 167.704 292.501 167.492 293.02 167.4C293.445 167.326 293.838 167.35 294.2 167.472C294.568 167.585 294.882 167.781 295.142 168.06C295.4 168.33 295.577 168.667 295.673 169.072L295.97 170.758C296.017 171.163 295.966 171.54 295.817 171.891C295.676 172.24 295.453 172.534 295.147 172.775C294.847 173.006 294.481 173.159 294.049 173.236ZM294.049 172.202C294.576 172.11 294.969 171.858 295.229 171.448C295.487 171.029 295.567 170.541 295.469 169.983C295.401 169.598 295.267 169.277 295.068 169.021C294.876 168.755 294.632 168.567 294.337 168.457C294.04 168.339 293.716 168.311 293.362 168.373C293.008 168.436 292.708 168.574 292.462 168.787C292.224 168.999 292.052 169.265 291.946 169.583C291.847 169.892 291.83 170.232 291.895 170.601C291.962 170.978 292.095 171.299 292.296 171.564C292.503 171.819 292.758 172.005 293.062 172.121C293.367 172.238 293.696 172.265 294.049 172.202ZM295.891 172.789L295.625 171.28L295.584 169.878L295.145 168.557L294.903 167.19L295.976 167.001L296.964 172.6L295.891 172.789ZM298.508 172.328L297.521 166.728L298.582 166.541L299.569 172.141L298.508 172.328ZM299.006 168.946L298.574 168.84C298.448 168.125 298.512 167.526 298.768 167.043C299.023 166.561 299.461 166.265 300.082 166.155C300.365 166.105 300.629 166.112 300.875 166.173C301.119 166.228 301.36 166.351 301.597 166.545L301.028 167.386C300.888 167.281 300.742 167.214 300.591 167.184C300.44 167.154 300.27 167.155 300.082 167.189C299.689 167.258 299.389 167.44 299.181 167.736C298.974 168.032 298.916 168.435 299.006 168.946ZM305.446 171.226C304.927 171.318 304.441 171.274 303.988 171.094C303.534 170.907 303.146 170.615 302.825 170.218C302.511 169.819 302.306 169.345 302.209 168.795C302.112 168.244 302.143 167.729 302.301 167.247C302.467 166.764 302.731 166.357 303.094 166.025C303.457 165.694 303.898 165.482 304.417 165.391C304.833 165.318 305.226 165.341 305.596 165.463C305.965 165.576 306.279 165.772 306.538 166.05C306.805 166.319 306.986 166.656 307.081 167.06L307.378 168.746C307.426 169.151 307.375 169.529 307.226 169.879C307.077 170.229 306.849 170.525 306.543 170.765C306.236 170.998 305.87 171.151 305.446 171.226ZM305.446 170.193C305.799 170.131 306.091 169.994 306.322 169.783C306.56 169.571 306.728 169.31 306.828 169.001C306.926 168.684 306.942 168.341 306.877 167.971C306.809 167.586 306.672 167.266 306.465 167.011C306.266 166.754 306.018 166.567 305.722 166.449C305.433 166.33 305.112 166.302 304.758 166.364C304.405 166.426 304.109 166.563 303.871 166.776C303.633 166.988 303.461 167.253 303.355 167.572C303.255 167.881 303.238 168.22 303.303 168.589C303.37 168.967 303.503 169.288 303.704 169.552C303.911 169.807 304.163 169.994 304.459 170.112C304.763 170.228 305.092 170.255 305.446 170.193ZM308.372 170.589L307.299 170.778L307.033 169.269L306.992 167.866L306.553 166.546L305.815 162.361L306.888 162.172L308.372 170.589Z" fill="#4F4F4F"/>
</svg>
