<svg width="299" height="266" viewBox="0 0 299 266" fill="none" xmlns="http://www.w3.org/2000/svg">
<path d="M127.672 46.8391L274.746 64.3802L279.491 82.0916L261.78 86.8374C262.423 89.2358 262.033 91.5647 260.612 93.8241C259.19 96.0835 257.188 97.5593 254.605 98.2514L43.4517 154.83C40.8688 155.522 38.397 155.245 36.0363 153.999C33.6756 152.753 32.1739 150.931 31.5312 148.532L13.8198 153.278L9.07405 135.567L127.672 46.8391ZM53.9884 161.498L89.4113 152.006L117.886 258.275L135.597 253.529L107.123 147.261L142.546 137.769L171.02 244.038L188.732 239.292L160.257 133.023L195.68 123.532L224.154 229.8L241.866 225.055L213.391 118.786L248.814 109.295L277.289 215.563L285.453 213.376C288.036 212.684 290.507 212.961 292.868 214.207C295.229 215.453 296.73 217.275 297.373 219.673L299.746 228.529L69.4974 290.224L67.1245 281.368C66.4818 278.97 66.8712 276.641 68.2926 274.381C69.7141 272.122 71.7162 270.646 74.2992 269.954L82.463 267.767L53.9884 161.498ZM310.283 235.197C312.866 234.505 315.337 234.782 317.698 236.028C320.059 237.274 321.56 239.096 322.203 241.495L326.949 259.206L61.2775 330.392L56.5317 312.681C55.889 310.283 56.2784 307.954 57.6999 305.694C59.1213 303.435 61.1235 301.959 63.7064 301.267L310.283 235.197Z" fill="#013941"/>
<path d="M134.264 36.7679L281.337 54.3089L286.082 72.0204L268.371 76.7661C269.014 79.1645 268.624 81.4935 267.203 83.7529C265.781 86.0123 263.779 87.488 261.196 88.1801L50.0429 144.758C47.4599 145.451 44.9881 145.174 42.6274 143.928C40.2667 142.682 38.7651 140.859 38.1224 138.461L20.411 143.207L15.6652 125.495L134.264 36.7679ZM60.5796 151.427L96.0025 141.935L124.477 248.204L142.188 243.458L113.714 137.189L149.137 127.698L177.611 233.966L195.323 229.221L166.848 122.952L202.271 113.461L230.746 219.729L248.457 214.983L219.982 108.715L255.405 99.2233L283.88 205.492L292.044 203.304C294.627 202.612 297.099 202.889 299.459 204.135C301.82 205.381 303.322 207.203 303.964 209.602L306.337 218.458L76.0885 280.153L73.7156 271.297C73.073 268.898 73.4624 266.569 74.8838 264.31C76.3052 262.051 78.3074 260.575 80.8903 259.883L89.0542 257.695L60.5796 151.427ZM316.874 225.126C319.457 224.434 321.929 224.711 324.289 225.957C326.65 227.203 328.152 229.025 328.794 231.423L333.54 249.135L67.8686 320.321L63.1228 302.61C62.4802 300.211 62.8696 297.882 64.291 295.623C65.7124 293.364 67.7146 291.888 70.2975 291.196L316.874 225.126Z" fill="#00D47E"/>
</svg>
