<svg width="280" height="201" viewBox="0 0 280 201" fill="none" xmlns="http://www.w3.org/2000/svg">
<g clip-path="url(#clip0_500_15782)">
<mask id="mask0_500_15782" style="mask-type:luminance" maskUnits="userSpaceOnUse" x="-239" y="-141" width="778" height="582">
<path d="M-238.534 -140.263H538.527V440.232H-238.534V-140.263Z" fill="white"/>
</mask>
<g mask="url(#mask0_500_15782)">
<path d="M299.998 150.362C299.998 232.879 232.841 299.772 149.996 299.772C67.1536 299.772 -0.00579834 232.88 -0.00579834 150.362C-0.00579834 67.8455 67.1517 0.952087 149.996 0.952087C232.841 0.952087 299.998 67.8455 299.998 150.362Z" fill="#00D47E"/>
<path d="M235.424 234.485C235.424 234.485 234.532 208.696 234.085 196.691C233.638 184.686 238.102 176.682 232.299 165.566C226.496 154.45 230.959 145.556 225.603 145.112C220.246 144.668 203.283 141.555 193.909 145.112C184.534 148.67 163.999 133.107 163.553 122.88C163.107 112.654 159.982 105.095 159.982 105.095C159.982 105.095 171.589 86.459 174.713 87.1063C177.838 87.7535 178.285 75.3038 180.517 74.4147C182.749 73.5246 206.408 67.2998 213.104 67.2998C219.8 67.2998 214.889 74.4147 214.889 74.4147L235.424 81.9708L238.996 73.9668L256.852 79.3025C256.852 79.3025 256.406 68.631 252.388 67.2969C248.369 65.9637 231.406 57.9596 231.406 57.9596C231.406 57.9596 234.978 64.6295 233.192 66.4077C231.406 68.187 225.603 57.9596 225.603 57.9596L212.658 53.0689C212.658 53.0689 203.73 54.4031 198.819 56.1813C193.909 57.9596 191.677 66.4077 191.677 66.4077C191.677 66.4077 182.749 70.8543 176.946 69.5202C171.142 68.187 172.927 57.0705 172.927 57.0705C172.927 57.0705 183.641 56.1814 184.534 53.0689C185.426 49.9565 176.946 44.1757 176.946 44.1757L183.641 41.0633L189.89 30.1964L199.712 31.282L202.836 19.7204L202.052 8.29822C202.052 8.29822 267.416 38.9077 288.025 89.5627L277.386 82.8599L281.85 92.6423L283.635 91.3081L288.992 101.089V109.093L286.314 121.39C286.314 121.39 269.301 92.8048 261.315 85.5273C261.315 85.5273 272.929 112.205 286.761 125.99L291.224 121.39V136.216V142.886L287.207 152.224L282.297 166.897L281.403 178.458V192.242L274.707 198.911L268.011 203.802V209.583L261.315 218.487L251.941 228.268L242.566 234.494H235.424V234.485Z" fill="#013941"/>
<path d="M106.335 285.105L97.4076 273.544L98.747 267.318H104.55L103.312 260.943L104.997 252.645L106.335 246.421L111.385 241.19C111.385 241.19 122.853 236.638 121.514 220.631C121.514 220.631 131.333 207.291 129.102 200.178C126.87 193.064 113.42 193.508 113.42 193.508L91.158 184.171C91.158 184.171 89.3727 174.833 83.1232 173.944C76.8727 173.055 75.0874 177.501 72.4085 173.944C69.7296 170.387 66.0211 165.048 58.9479 164.605C51.8747 164.162 42.9463 158.382 42.9463 158.382C42.9463 158.382 41.6068 153.492 34.0188 155.27C34.0188 155.27 29.1078 150.378 31.3399 140.596C31.3399 140.596 30.894 135.26 24.1967 137.484C24.1967 137.484 18.8408 131.703 17.0546 131.703C15.2693 131.703 12.5904 114.807 20.6271 107.248C20.6271 107.248 28.2151 98.3553 36.6977 103.691C36.6977 103.691 36.2499 112.139 37.5894 116.141C38.9288 120.142 41.6068 110.36 41.6068 110.36L42.0536 97.9102C42.0536 97.9102 47.8573 95.2419 52.7683 90.7963C57.6774 86.3497 55.8921 80.5689 62.5884 76.1233C69.2838 71.6767 70.6232 76.1233 70.6232 76.1233L71.0691 68.5643H77.3195L92.4975 61.8944C92.4975 61.8944 85.3544 62.3394 82.6764 58.3369L101.871 48.1105V42.3307L100.555 30.3251L96.0681 35.6608L95.1764 30.3251L86.6938 29.2405H83.57L76.4269 32.5484L75.9801 36.995L67.9453 40.5515L63.9269 36.5499L67.0526 32.5484L70.1764 29.2405L78.4968 18.0205C78.4968 18.0205 23.3167 48.8487 7.2403 103.393C7.2403 103.393 6.34182 120.587 5.89599 126.812C5.44918 133.037 10.8051 138.817 10.8051 138.817H15.7161L17.5014 143.263L21.5188 144.598L23.7519 145.932L25.0904 149.398L26.8757 155.714L30.894 156.604L33.1252 160.605L35.8041 161.05L34.9114 157.493H38.483L39.8215 160.605L35.8041 163.717L34.4646 166.831L34.0188 173.944L34.4646 179.28L34.9114 184.171L30.894 186.394L31.7857 191.285L32.2335 194.397V199.289L30.0004 200.178L46.071 221.965L50.982 223.744L54.1058 224.188L59.0168 225.968L63.0352 233.526C63.0352 233.526 75.9801 261.984 77.7664 265.985C79.5517 269.984 98.3012 286.436 106.335 285.102" fill="#013941"/>
</g>
</g>
<defs>
<clipPath id="clip0_500_15782">
<rect width="300" height="300" fill="white"/>
</clipPath>
</defs>
</svg>
