<svg width="64" height="64" viewBox="0 0 64 64" fill="none" xmlns="http://www.w3.org/2000/svg">
<path d="M1.37745e-07 20.0002C-0.000542938 24.6294 1.60478 29.1155 4.54222 32.6933C7.47965 36.2712 11.5673 38.7193 16.108 39.6202C16.3695 36.7548 17.1048 33.9527 18.284 31.3282C14.78 30.1442 12.528 27.4562 12 23.6402H10V21.9362H11.864V20.2002C11.8613 20.0135 11.8667 19.8335 11.88 19.6602H10V17.9522H12.044C12.944 12.9602 16.852 10.0002 22.724 10.0002C23.988 10.0002 25.084 10.1242 26 10.3402V13.2722C24.9299 13.0356 23.8358 12.9255 22.74 12.9442C19.064 12.9442 16.588 14.8082 15.804 17.9522H23.472V19.6602H15.552C15.5413 19.8468 15.5373 20.0428 15.54 20.2482V21.9362H23.472V23.6442H15.72C16.192 26.0522 17.592 27.7642 19.74 28.5602C21.8462 25.072 24.7427 22.1277 28.1959 19.9648C31.6491 17.8018 35.5624 16.4808 39.62 16.1082C38.639 11.2502 35.8899 6.92923 31.9053 3.98222C27.9207 1.03521 22.9841 -0.328079 18.0518 0.156434C13.1196 0.640947 8.54265 2.93878 5.20765 6.60482C1.87265 10.2709 0.016948 15.0442 1.37745e-07 20.0002ZM64 42.0002C64 47.8349 61.6822 53.4307 57.5564 57.5565C53.4305 61.6823 47.8348 64.0002 42 64.0002C36.1652 64.0002 30.5695 61.6823 26.4437 57.5565C22.3179 53.4307 20 47.8349 20 42.0002C20 36.1654 22.3179 30.5696 26.4437 26.4438C30.5695 22.318 36.1652 20.0002 42 20.0002C47.8348 20.0002 53.4305 22.318 57.5564 26.4438C61.6822 30.5696 64 36.1654 64 42.0002ZM33 47.2882C33.276 50.6282 35.984 53.2282 40.856 53.5362V56.0002H43.016V53.5202C48.052 53.1762 51 50.5602 51 46.7602C51 43.3002 48.748 41.5202 44.72 40.6002L43.016 40.2002V33.4962C45.176 33.7362 46.552 34.8842 46.88 36.4762H50.672C50.392 33.2602 47.556 30.7442 43.016 30.4682V28.0002H40.856V30.5162C36.552 30.9282 33.624 33.4442 33.624 37.0042C33.624 40.1522 35.8 42.1562 39.424 42.9762L40.856 43.3162V50.4362C38.64 50.1162 37.176 48.9322 36.844 47.2882H33ZM40.84 39.7082C38.712 39.2282 37.56 38.2522 37.56 36.7802C37.56 35.1402 38.804 33.9042 40.856 33.5442V39.7042H40.836L40.84 39.7082ZM43.328 43.8842C45.908 44.4642 47.1 45.4042 47.1 47.0682C47.1 48.9642 45.62 50.2682 43.02 50.5082V43.8122L43.328 43.8842Z" fill="#013941"/>
</svg>
