<svg width="64" height="64" viewBox="0 0 64 64" fill="none" xmlns="http://www.w3.org/2000/svg">
<path d="M46.672 32.088L35.3627 25.5334L41.064 11.8507C41.263 11.4443 41.3556 10.9941 41.3331 10.5422C41.3107 10.0902 41.1741 9.6514 40.9359 9.26669C40.6977 8.88198 40.3658 8.56398 39.9713 8.34245C39.5767 8.12092 39.1325 8.0031 38.68 8.00002C38.0786 7.99775 37.494 8.19886 37.0213 8.57069L36.8347 8.73069L16.8347 27.664C16.534 27.9495 16.3039 28.3011 16.1626 28.6909C16.0213 29.0807 15.9727 29.4981 16.0205 29.91C16.0684 30.3218 16.2114 30.7169 16.4384 31.0639C16.6653 31.4109 16.9699 31.7004 17.328 31.9094L28.64 38.4694L22.872 52.3094C22.6341 52.8739 22.598 53.5032 22.7698 54.0912C22.9417 54.6792 23.3109 55.19 23.8154 55.5376C24.3199 55.8852 24.9287 56.0483 25.5394 55.9994C26.1501 55.9506 26.7252 55.6927 27.168 55.2694L47.168 36.3307C47.468 36.045 47.6975 35.6934 47.8382 35.3037C47.979 34.9141 48.0273 34.497 47.9792 34.0855C47.931 33.674 47.7879 33.2794 47.5611 32.9327C47.3342 32.586 47.0298 32.2968 46.672 32.088Z" fill="#013941"/>
</svg>
