<svg width="320" height="44" viewBox="0 0 320 44" fill="none" xmlns="http://www.w3.org/2000/svg">
<path fill-rule="evenodd" clip-rule="evenodd" d="M0.785142 3.93321C0 5.47414 0 7.49132 0 11.5257V31.6957C0 35.7301 0 37.7472 0.785142 39.2882C1.47577 40.6436 2.57778 41.7456 3.93321 42.4362C5.47414 43.2214 7.49132 43.2214 11.5257 43.2214H31.6957C35.7301 43.2214 37.7472 43.2214 39.2882 42.4362C40.6436 41.7456 41.7456 40.6436 42.4362 39.2882C43.2214 37.7472 43.2214 35.7301 43.2214 31.6957V11.5257C43.2214 7.49133 43.2214 5.47414 42.4362 3.93321C41.7456 2.57778 40.6436 1.47577 39.2882 0.785142C37.7472 0 35.7301 0 31.6957 0H11.5257C7.49133 0 5.47414 0 3.93321 0.785142C2.57778 1.47577 1.47577 2.57778 0.785142 3.93321ZM27.5943 21.7213C27.3066 21.5569 27.2073 21.1914 27.3726 20.9051L32.4019 12.197C32.6954 11.6888 32.1549 11.1076 31.6228 11.3592L14.3313 9.84533C14.3029 9.85876 14.2407 9.88034 14.1516 9.91125C12.8672 10.3568 5.99617 12.7405 14.3315 20.5754L10.0704 28.6577C11.8399 33.2397 19.6876 30.1126 22.0217 29.1826C22.459 29.0083 22.7028 28.9112 22.6767 28.9564L16.5189 34.0983C16.2254 34.6065 16.7658 35.1877 17.2979 34.9361L34.5479 26.7782C34.9857 26.5712 35.0096 25.9602 34.5893 25.7199L27.5943 21.7213Z" fill="#00D47E"/>
<path d="M62.2614 36.3004H54.8012V9.69398H62.7376L70.1184 19.6615L74.0073 25.777H74.5231L74.166 19.9791V9.69398H81.6262V36.3004H73.6898L65.8328 26.0549L62.4598 20.8131H61.944L62.2614 25.8961V36.3004Z" fill="#00D47E"/>
<path d="M98.3453 36.6975C89.0994 36.6975 83.6233 31.2968 83.6233 22.9972C83.6233 14.6976 89.0994 9.29688 98.3453 9.29688C107.829 9.29688 113.226 14.6976 113.226 22.9972C113.226 31.2968 107.829 36.6975 98.3453 36.6975ZM98.3453 29.5495C103.742 29.5495 105.29 28.2787 105.29 22.9972C105.29 17.7156 103.742 16.4449 98.3453 16.4449C92.9486 16.4449 91.5597 17.7156 91.5597 22.9972C91.5597 28.2787 92.9486 29.5495 98.3453 29.5495Z" fill="#00D47E"/>
<path d="M135.017 36.3004H124.303L113.628 9.69398H122.636L129.501 28.7553H130.017L136.723 9.69398H145.691L135.017 36.3004Z" fill="#00D47E"/>
<path d="M153.274 36.3004H144.901L156.369 9.69398H167.043L178.551 36.3004H169.98L167.956 31.3762H155.337L153.274 36.3004ZM159.702 20.9322L158.155 24.665H165.218L163.67 20.9322L161.924 16.4449H161.409L159.702 20.9322Z" fill="#00D47E"/>
<path d="M193.635 36.6975C184.389 36.6975 178.953 31.2968 178.953 22.9972C178.953 14.6976 184.389 9.29688 193.635 9.29688C202.564 9.29688 207.921 13.546 207.921 20.6542V21.3293H199.588V20.6542C199.588 17.6362 198.159 16.4449 193.754 16.4449C188.358 16.4449 186.889 17.7156 186.889 22.9972C186.889 28.2787 188.358 29.5495 193.754 29.5495C198.159 29.5495 199.588 28.3582 199.588 25.3401V24.665H207.921V25.3401C207.921 32.4484 202.564 36.6975 193.635 36.6975Z" fill="#00D47E"/>
<path d="M217.347 36.3004H209.886V9.69398H225.402C232.426 9.69398 236.116 12.6326 236.116 17.8347C236.116 22.0441 234.013 24.5459 228.934 25.1813V25.5784C231.672 26.2932 232.545 27.6037 233.537 29.6289L236.83 36.3004H228.219L225.045 29.7878C224.092 27.8022 223.299 27.2463 220.402 27.2463H217.347V36.3004ZM217.347 16.4051V21.6867H225.323C227.505 21.6867 228.299 21.2896 228.299 19.0261C228.299 16.9214 227.505 16.4051 225.323 16.4051H217.347Z" fill="#00D47E"/>
<path d="M251.433 36.6975C242.147 36.6975 237.861 32.2101 237.861 25.1416V9.69398H245.322V24.5459C245.322 28.3185 246.393 29.4701 251.433 29.4701C256.472 29.4701 257.544 28.3185 257.544 24.5459V9.69398H265.004V25.1416C265.004 32.2101 260.718 36.6975 251.433 36.6975Z" fill="#00D47E"/>
<path d="M280.136 36.6975C272.001 36.6975 267.041 33.7986 267.041 27.0477V26.8094H274.501V27.6434C274.501 29.4304 275.136 29.9069 280.136 29.9069C284.66 29.9069 285.136 29.5495 285.136 28.3582C285.136 27.4051 284.62 27.008 282.437 26.73L274.104 25.6181C269.144 24.943 266.644 22.2824 266.644 17.9936C266.644 13.7445 269.938 9.29688 279.541 9.29688C287.993 9.29688 292.04 12.99 292.04 18.9467V19.1849H284.58V18.5893C284.58 16.6831 283.747 16.0477 278.747 16.0477C274.937 16.0477 274.104 16.564 274.104 17.7156C274.104 18.5495 274.58 18.9467 276.009 19.1452L284.342 20.3763C290.85 21.3293 292.596 24.665 292.596 28.0802C292.596 32.647 289.104 36.6975 280.136 36.6975Z" fill="#00D47E"/>
<path d="M310.635 36.3004H303.175V16.4051H293.77V9.69398H320V16.4051H310.635V36.3004Z" fill="#00D47E"/>
</svg>
