<svg width="237" height="32" viewBox="0 0 237 32" fill="none" xmlns="http://www.w3.org/2000/svg">
<path fill-rule="evenodd" clip-rule="evenodd" d="M0.581299 2.91205C0 4.05291 0 5.54639 0 8.53333V23.4667C0 26.4536 0 27.9471 0.581299 29.0879C1.09262 30.0915 1.90852 30.9074 2.91205 31.4187C4.05291 32 5.54639 32 8.53333 32H23.4667C26.4536 32 27.9471 32 29.0879 31.4187C30.0915 30.9074 30.9074 30.0915 31.4187 29.0879C32 27.9471 32 26.4536 32 23.4667V8.53333C32 5.54639 32 4.05291 31.4187 2.91205C30.9074 1.90852 30.0915 1.09262 29.0879 0.581299C27.9471 0 26.4536 0 23.4667 0H8.53333C5.54639 0 4.05291 0 2.91205 0.581299C1.90852 1.09262 1.09262 1.90852 0.581299 2.91205ZM20.3505 16.1647C20.1383 16.0423 20.0651 15.7703 20.1871 15.5572L23.8961 9.07678C24.1126 8.69858 23.714 8.26605 23.3216 8.4533L10.5691 7.3267C10.5481 7.33669 10.5023 7.35275 10.4366 7.37575C9.48933 7.70734 4.42192 9.48123 10.5692 15.3119L7.42669 21.3266C8.73168 24.7365 14.5194 22.4093 16.2407 21.7172C16.5633 21.5875 16.743 21.5152 16.7238 21.5488L12.1824 25.3754C11.966 25.7536 12.3645 26.1862 12.757 25.9989L25.4788 19.9279C25.8017 19.7739 25.8193 19.3191 25.5093 19.1403L20.3505 16.1647Z" fill="#013941"/>
<path d="M46.0965 26.8757H40.5732V7.17701H46.449L51.9136 14.5567L54.7928 19.0844H55.1748L54.9103 14.7919V7.17701H60.4337V26.8757H54.5578L48.7406 19.2902L46.2434 15.4093H45.8615L46.0965 19.1726V26.8757Z" fill="#013941"/>
<path d="M72.8121 27.1697C65.9667 27.1697 61.9123 23.1712 61.9123 17.0263C61.9123 10.8815 65.9667 6.883 72.8121 6.883C79.8338 6.883 83.8294 10.8815 83.8294 17.0263C83.8294 23.1712 79.8338 27.1697 72.8121 27.1697ZM72.8121 21.8775C76.8077 21.8775 77.9535 20.9367 77.9535 17.0263C77.9535 13.116 76.8077 12.1752 72.8121 12.1752C68.8165 12.1752 67.7882 13.116 67.7882 17.0263C67.7882 20.9367 68.8165 21.8775 72.8121 21.8775Z" fill="#013941"/>
<path d="M99.9626 26.8757H92.0302L84.1271 7.17701H90.7962L95.8789 21.2895H96.2608L101.226 7.17701H107.866L99.9626 26.8757Z" fill="#013941"/>
<path d="M113.48 26.8757H107.281L115.771 7.17701H123.674L132.194 26.8757H125.848L124.35 23.23H115.007L113.48 26.8757ZM118.239 15.4975L117.093 18.2612H122.323L121.177 15.4975L119.884 12.1752H119.503L118.239 15.4975Z" fill="#013941"/>
<path d="M143.362 27.1697C136.517 27.1697 132.492 23.1712 132.492 17.0263C132.492 10.8815 136.517 6.883 143.362 6.883C149.973 6.883 153.939 10.0289 153.939 15.2917V15.7915H147.769V15.2917C147.769 13.0572 146.712 12.1752 143.45 12.1752C139.455 12.1752 138.368 13.116 138.368 17.0263C138.368 20.9367 139.455 21.8775 143.45 21.8775C146.712 21.8775 147.769 20.9955 147.769 18.761V18.2612H153.939V18.761C153.939 24.0238 149.973 27.1697 143.362 27.1697Z" fill="#013941"/>
<path d="M160.918 26.8757H155.394V7.17701H166.882C172.082 7.17701 174.814 9.35268 174.814 13.2042C174.814 16.3207 173.257 18.173 169.496 18.6434V18.9374C171.523 19.4666 172.17 20.4369 172.904 21.9363L175.343 26.8757H168.967L166.617 22.0539C165.912 20.5839 165.324 20.1723 163.18 20.1723H160.918V26.8757ZM160.918 12.1458V16.0561H166.823C168.439 16.0561 169.026 15.7621 169.026 14.0862C169.026 12.528 168.439 12.1458 166.823 12.1458H160.918Z" fill="#013941"/>
<path d="M186.154 27.1697C179.279 27.1697 176.106 23.8474 176.106 18.614V7.17701H181.63V18.173C181.63 20.9661 182.423 21.8187 186.154 21.8187C189.885 21.8187 190.678 20.9661 190.678 18.173V7.17701H196.202V18.614C196.202 23.8474 193.029 27.1697 186.154 27.1697Z" fill="#013941"/>
<path d="M207.405 27.1697C201.382 27.1697 197.71 25.0234 197.71 20.0253V19.8488H203.233V20.4663C203.233 21.7893 203.703 22.1421 207.405 22.1421C210.754 22.1421 211.107 21.8775 211.107 20.9955C211.107 20.2899 210.725 19.9959 209.109 19.79L202.939 18.9668C199.267 18.467 197.416 16.4971 197.416 13.3218C197.416 10.1759 199.855 6.883 206.964 6.883C213.222 6.883 216.219 9.61729 216.219 14.0274V14.2039H210.696V13.7628C210.696 12.3516 210.079 11.8812 206.377 11.8812C203.556 11.8812 202.939 12.2634 202.939 13.116C202.939 13.7334 203.292 14.0274 204.35 14.1744L210.519 15.0859C215.338 15.7915 216.63 18.2612 216.63 20.7897C216.63 24.1708 214.045 27.1697 207.405 27.1697Z" fill="#013941"/>
<path d="M229.986 26.8757H224.463V12.1458H217.5V7.17701H236.919V12.1458H229.986V26.8757Z" fill="#013941"/>
</svg>
