<svg width="411" height="223" viewBox="0 0 411 223" fill="none" xmlns="http://www.w3.org/2000/svg">
<g clip-path="url(#clip0_532_3412)">
<rect width="411" height="223" fill="#013941"/>
<mask id="mask0_532_3412" style="mask-type:alpha" maskUnits="userSpaceOnUse" x="0" y="0" width="411" height="224">
<rect width="411" height="223.37" rx="5.36087" fill="#013941"/>
</mask>
<g mask="url(#mask0_532_3412)">
<g opacity="0.56">
<path d="M56.0814 135.815C56.0814 114.896 20.2667 -13.5031 20.645 -34.4209C20.7573 -40.6387 23.0932 -43.7784 33.9129 -45.4756C43.3085 -46.9492 54.6053 -46.0855 62.3106 -50.1645C71.4782 -55.0167 73.8009 -63.3052 76.0442 -70.0486C77.537 -74.5361 76.8546 -79.9999 80.8161 -84.0465C88.6595 -92.0586 97.9934 -99.5371 105.257 -107.764C111.739 -115.106 114.622 -109.53 113.529 -117.565" stroke="#014852" stroke-width="21.8431" stroke-linecap="round"/>
<path d="M66.1078 63.649C66.1078 49.1933 71.2619 33.952 77.9341 20.9843C80.9833 15.0578 85.4581 7.38434 92.7008 5.04626C98.2638 3.25032 105.151 3.66621 110.941 3.98731C118.089 4.38354 124.616 6.87628 131.308 8.99505C136.978 10.7901 143.734 13.2785 149.704 11.0553C161.148 6.79326 169.899 -5.58126 177.142 -14.0686C189.131 -28.1189 199.799 -43.0377 211.587 -57.2195C217.052 -63.7942 222.719 -71.2714 230.296 -75.9907C236.315 -79.7393 243.301 -80.5119 250.413 -80.5119C269.841 -80.5119 288.454 -73.1527 307.854 -74.7031C313.231 -75.1328 317.571 -76.5571 322.339 -78.7377C327.825 -81.2462 333.372 -81.6971 339.422 -82.1143C351.535 -82.9496 363.004 -84.1124 374.431 -88.152C384.593 -91.7445 392.866 -96.9385 401.18 -103.232" stroke="#014852" stroke-width="21.8431" stroke-linecap="round"/>
<path d="M148.834 53.3487C159.077 57.7732 174.627 39.5688 179.709 33.9901C190.204 22.4674 199.1 9.66651 209.197 -2.17854C215.695 -9.80177 222.92 -18.2078 233.164 -20.4817C240.651 -22.1431 247.36 -20.0296 254.382 -17.5591C263.519 -14.3456 272.652 -11.0831 282.215 -9.3221C290.861 -7.73018 300.344 -7.0858 308.921 -9.52567C323.149 -13.5723 365.363 -94.2776 375.69 -104.022" stroke="#014852" stroke-width="21.8431" stroke-linecap="round"/>
<path d="M210.613 71.5871C220.378 59.1545 232.503 50.2595 247.467 45.4134C260.196 41.2912 274.291 41.2217 286.739 36.3355C303.289 29.8389 317.569 18.8213 332.021 8.70006C350.857 -4.49183 365.174 -22.4853 376.807 -42.1514C382.754 -52.2041 387.96 -62.676 393.297 -73.0572C394.415 -75.2314 395.545 -79.227 397.809 -80.4314" stroke="#025966" stroke-width="21.8431" stroke-linecap="round"/>
<path d="M89.3059 93.6653C93.097 87.8869 97.8837 83.8158 103.867 81.7001C108.956 79.9006 114.647 80.0404 119.614 77.8749C126.218 74.996 131.849 69.9441 137.561 65.32C145.005 59.2926 150.566 50.9318 155.023 41.7447C157.301 37.0486 159.274 32.1443 161.302 27.2848C161.727 26.2672 162.135 24.3855 163.034 23.8418" stroke="#025966" stroke-width="21.8431" stroke-linecap="round"/>
<path d="M106.171 64.4957C115.936 52.0626 128.061 43.1677 143.025 38.3216C155.754 34.1994 169.849 34.1299 182.297 29.2436C198.847 22.7471 213.065 -12.3097 227.517 -22.4309C246.353 -35.6228 314.614 -20.0207 326.247 -39.6869C332.194 -49.7395 396.487 -77.1421 401.824 -87.5231C402.942 -89.6972 561.395 -120.943 435.243 -107.4" stroke="#025966" stroke-width="21.8431" stroke-linecap="round"/>
<path d="M210.511 128.825C210.511 119.14 212.741 108.933 220.752 101.669C228.946 94.2403 240.148 93.0263 251.387 92.924C264.009 92.8096 276.723 93.0992 288.908 96.2228C293.403 97.3748 301.614 101.744 306.211 98.8308C311.722 95.3394 315.511 88.1151 318.66 83.2585C325.839 72.1849 332.415 60.8261 339.23 49.5826C352.572 27.5701 365.873 4.99658 390.17 -9.48449C406.493 -19.213 428.496 -21.6367 447.29 -25.824" stroke="#014852" stroke-width="21.8431" stroke-linecap="round"/>
<path d="M203.952 139.813C202.371 138.877 203.427 148.138 203.467 148.474C205.096 162.333 210.878 178.223 223.32 188.557C239.795 202.24 264.012 192.851 283.56 198.52C300.519 203.438 314.789 215.342 327.345 225.114C336.528 232.262 365.683 208.432 376.857 213.794C382.966 216.726 402.73 234.108 376.857 234.108C391.73 232.27 424.822 233.811 439.864 234.108" stroke="#014852" stroke-width="21.8431" stroke-linecap="round"/>
<path fill-rule="evenodd" clip-rule="evenodd" d="M66.7408 250.106C68.2856 250.264 71.1339 250.473 73.9058 249.689C82.0838 247.374 85.1423 239.654 86.3306 236.135C87.6958 232.091 88.5463 227.292 89.2143 223.525C89.2606 223.263 89.3065 223.006 89.351 222.755C89.9535 219.376 90.4419 216.84 90.9639 214.973C96.5492 214.766 102.886 214.506 109.07 213.758C116.819 212.821 125.24 211.034 132.866 207.087C137.88 204.492 141.746 200.929 144.807 197.663C146.343 196.024 147.777 194.35 149.059 192.836C149.278 192.579 149.491 192.327 149.699 192.08C150.767 190.818 151.724 189.687 152.709 188.583C157.334 183.402 160.369 181.426 164.758 181.391C175.143 181.307 187.567 186.985 197.99 194.631L197.99 194.631C197.994 194.634 198.024 194.656 198.076 194.695C198.132 194.736 198.212 194.796 198.312 194.87C198.511 195.019 198.785 195.226 199.105 195.472C199.74 195.959 200.498 196.553 201.18 197.121C203.386 201.074 207.926 203.387 212.633 202.548C214.555 202.206 218.613 200.875 220.753 196.387C222.646 192.415 221.562 188.885 221.151 187.75C220.333 185.493 218.92 183.922 218.575 183.54C218.562 183.525 218.551 183.512 218.541 183.502C217.473 182.307 216.138 181.155 215.241 180.405C213.251 178.742 211.089 177.15 210.909 177.018C198.923 168.226 181.843 159.409 164.582 159.548C150.67 159.66 142.182 167.577 136.415 174.036C135.217 175.377 134.041 176.769 132.975 178.029C132.778 178.262 132.584 178.491 132.395 178.714C131.133 180.204 130.004 181.516 128.872 182.724C126.597 185.15 124.702 186.717 122.826 187.688C118.498 189.928 112.997 191.281 106.447 192.073C100.93 192.74 95.3155 192.95 89.5127 193.168C88.3834 193.21 87.2471 193.253 86.103 193.299C76.416 193.69 72.4484 202.009 71.088 205.553C69.4835 209.734 68.5722 214.851 67.8828 218.722L67.8465 218.924C67.1808 222.663 66.6574 225.584 66.0292 227.855C65.9003 227.825 65.7688 227.793 65.6347 227.76C62.7475 227.054 59.4881 225.892 56.859 224.471C55.9718 223.991 55.3003 223.56 54.7988 223.2C54.8726 223.081 54.9469 222.961 55.0207 222.842L37.5201 209.896C36.0051 211.625 34.6757 213.562 33.6941 215.706C28.9642 223.032 24.181 229.532 18.4044 235.778C14.3093 240.207 14.5796 247.117 19.0081 251.212C23.4366 255.307 30.3464 255.037 34.4415 250.608C37.3095 247.507 39.946 244.378 42.4221 241.201C43.8192 242.179 45.2049 243.001 46.4722 243.686C51.0711 246.172 56.1509 247.927 60.4426 248.977C62.6077 249.507 64.7662 249.906 66.7408 250.106ZM64.9833 230.676C64.986 230.685 65.0305 230.623 65.1096 230.467C65.02 230.59 64.9807 230.668 64.9833 230.676ZM91.8743 212.514C91.8726 212.506 91.8302 212.571 91.7516 212.735C91.8372 212.605 91.8761 212.523 91.8743 212.514Z" fill="#014852"/>
<path d="M172.384 58.2495C172.922 56.8734 164.552 60.1498 164.249 60.2695C151.734 65.2078 138.201 73.6445 131.211 85.2855C121.956 100.7 135.717 115.304 134.538 130.709C133.514 144.073 125.449 157.44 119.004 169.008C114.29 177.468 142.477 191.631 139.834 201.017C138.389 206.147 114.116 228.515 108.718 210.174C113.525 220.215 117.478 229.735 120.341 240.48" stroke="#025966" stroke-width="21.8431" stroke-linecap="round"/>
<path d="M456.831 52.0044C458.548 51.0538 457.403 60.4634 457.36 60.8041C455.591 74.8863 449.308 91.0314 435.792 101.531C417.894 115.434 391.587 105.895 370.351 111.655C351.928 116.652 336.425 128.747 322.786 138.676C312.81 145.939 303.496 155.305 291.357 160.753C284.721 163.731 276.153 162.086 268.998 161.259C252.842 159.392 237.775 158.232 221.433 158.533" stroke="#025966" stroke-width="21.8431" stroke-linecap="round"/>
<path d="M279.692 237.688C280.862 237.872 280.147 236.919 280.12 236.885C279.012 235.457 274.827 233.589 265.641 231.861C253.478 229.574 235.373 229.047 220.859 227.348C208.269 225.874 197.733 223.888 188.458 222.208C181.674 220.978 175.36 219.586 167.08 218.412C162.553 217.769 156.668 217.459 151.758 217.149C140.669 216.447 130.333 215.738 119.133 214.822" stroke="#025966" stroke-width="21.8431" stroke-linecap="round"/>
<path d="M158.793 83.0088C159.897 82.2417 159.16 89.8291 159.132 90.1039C157.993 101.458 153.953 114.477 145.259 122.943C133.746 134.153 116.824 126.461 103.163 131.106C91.3123 135.135 81.3401 144.888 72.5666 152.894C66.1495 158.75 60.1589 166.302 52.35 170.695C48.0814 173.097 42.57 171.77 37.9676 171.103C27.5747 169.598 17.8834 168.662 7.37119 168.905" stroke="#014852" stroke-width="21.8431" stroke-linecap="round"/>
<path d="M156.04 191.643C157.199 192.325 150 194.833 149.739 194.923C138.951 198.645 125.438 200.429 114.108 196.08C99.1067 190.322 99.0036 171.733 89.0641 161.275C80.4418 152.201 67.4089 147.231 56.4638 142.618C48.4587 139.243 39.0916 136.966 31.8318 131.716C27.8629 128.845 26.7594 123.285 25.437 118.827C22.4511 108.759 19.241 99.5667 14.6172 90.123" stroke="#025966" stroke-width="21.8431" stroke-linecap="round"/>
<path d="M347.642 186.959C345.646 180.343 382.145 184.764 377.008 181.039C372.638 177.87 367.141 176.39 362.992 172.905C357.476 168.272 353.508 161.83 349.342 155.776C343.913 147.885 388.022 159.508 386.354 149.434" stroke="#025966" stroke-width="16.6007" stroke-linecap="round"/>
</g>
</g>
</g>
<defs>
<clipPath id="clip0_532_3412">
<rect width="411" height="223" fill="white"/>
</clipPath>
</defs>
</svg>
