<svg width="300" height="139" viewBox="0 0 300 139" fill="none" xmlns="http://www.w3.org/2000/svg">
<path d="M171.68 67.8813C171.68 67.8813 185.487 61.2542 197.084 56.2839C208.129 51.3136 211.443 44.6865 203.159 41.9252C195.428 39.164 177.203 38.0594 162.844 38.6117C156.77 39.164 137.441 40.2685 137.441 40.2685C123.082 40.8207 121.977 45.791 135.232 50.2091L171.68 67.8813Z" fill="#013941"/>
<path d="M307.536 119.794C307.536 119.794 321.894 125.316 322.999 131.943C324.656 137.466 329.626 213.125 9.86935 34.746C-8.90735 24.2531 0.481018 12.6557 26.4371 9.89446C104.857 1.05835 85.5285 7.13317 307.536 119.794Z" fill="#013941"/>
<path d="M236.847 83.3445C236.847 83.3445 307.536 62.3588 330.73 54.6272C345.641 49.6569 352.821 66.2246 352.821 66.2246C352.821 66.2246 325.208 133.6 322.447 131.943L237.399 88.3148C234.638 86.6581 234.638 84.449 236.847 83.3445Z" fill="#013941"/>
<path d="M169.471 91.0761C183.278 97.1509 189.905 100.464 197.637 113.166L255.071 199.318C262.803 212.02 257.28 218.095 242.922 213.677C228.563 208.707 208.682 196.005 199.293 184.407L108.171 76.1651C98.7826 64.5678 102.096 60.702 115.903 66.7768L169.471 91.0761Z" fill="#013941"/>
<path d="M52.9455 10.999C55.7067 15.4171 70.6177 28.119 70.6177 28.119C70.6177 28.119 67.8564 33.0893 59.0203 30.328C51.841 28.119 44.6616 21.4919 40.7958 13.7603L52.9455 10.999Z" fill="#013941"/>
<path d="M235.742 108.748C232.692 108.748 230.22 106.276 230.22 103.226C230.22 100.176 232.692 97.7034 235.742 97.7034C238.792 97.7034 241.265 100.176 241.265 103.226C241.265 106.276 238.792 108.748 235.742 108.748Z" fill="#013941"/>
<path d="M215.861 98.8078C212.811 98.8078 210.339 96.3353 210.339 93.2853C210.339 90.2352 212.811 87.7627 215.861 87.7627C218.911 87.7627 221.384 90.2352 221.384 93.2853C221.384 96.3353 218.911 98.8078 215.861 98.8078Z" fill="#013941"/>
<path d="M195.98 88.3149C192.93 88.3149 190.457 85.8424 190.457 82.7923C190.457 79.7423 192.93 77.2698 195.98 77.2698C199.03 77.2698 201.502 79.7423 201.502 82.7923C201.502 85.8424 199.03 88.3149 195.98 88.3149Z" fill="#013941"/>
<path d="M175.546 77.822C172.496 77.822 170.024 75.3494 170.024 72.2994C170.024 69.2494 172.496 66.7769 175.546 66.7769C178.596 66.7769 181.069 69.2494 181.069 72.2994C181.069 75.3494 178.596 77.822 175.546 77.822Z" fill="#013941"/>
<path d="M155.665 67.3293C152.615 67.3293 150.143 64.8568 150.143 61.8067C150.143 58.7567 152.615 56.2842 155.665 56.2842C158.715 56.2842 161.188 58.7567 161.188 61.8067C161.188 64.8568 158.715 67.3293 155.665 67.3293Z" fill="#013941"/>
<path d="M135.784 57.3886C132.734 57.3886 130.261 54.9161 130.261 51.8661C130.261 48.816 132.734 46.3435 135.784 46.3435C138.834 46.3435 141.306 48.816 141.306 51.8661C141.306 54.9161 138.834 57.3886 135.784 57.3886Z" fill="#013941"/>
<path d="M115.903 46.8957C112.853 46.8957 110.38 44.4232 110.38 41.3732C110.38 38.3231 112.853 35.8506 115.903 35.8506C118.953 35.8506 121.425 38.3231 121.425 41.3732C121.425 44.4232 118.953 46.8957 115.903 46.8957Z" fill="#013941"/>
<path d="M178.86 60.7802C178.86 60.7802 192.666 54.1531 204.264 49.1828C215.309 44.2125 218.622 37.5854 210.338 34.8242C202.607 32.0629 184.382 30.9584 170.024 31.5106C163.949 32.0629 144.62 33.1674 144.62 33.1674C130.261 33.7196 129.157 38.69 142.411 43.108L178.86 60.7802Z" fill="#013941"/>
<path d="M314.715 112.692C314.715 112.692 329.074 118.215 330.178 124.842C331.835 130.365 336.805 206.024 17.0487 27.6449C-1.72803 17.1521 7.66034 5.55467 33.6164 2.79338C112.037 -6.04272 92.7078 0.0320959 314.715 112.692Z" fill="#00D47E"/>
<path d="M244.026 76.2435C244.026 76.2435 314.715 55.2577 337.91 47.5261C352.821 42.5558 360 59.1235 360 59.1235C360 59.1235 332.387 126.499 329.626 124.842L244.578 81.2138C241.817 79.557 241.817 77.348 244.026 76.2435Z" fill="#013941"/>
<path d="M176.651 83.975C190.457 90.0498 197.084 93.3634 204.816 106.065L262.251 192.217C269.982 204.919 264.46 210.994 250.101 206.576C235.742 201.606 215.861 188.904 206.473 177.306L115.35 69.0641C105.962 57.4667 109.276 53.6009 123.082 59.6757L176.651 83.975Z" fill="#013941"/>
<path d="M60.1247 3.89795C62.8859 8.316 77.7969 21.0179 77.7969 21.0179C77.7969 21.0179 75.0356 25.9882 66.1995 23.2269C59.0202 21.0179 51.8408 14.3908 47.975 6.65923L60.1247 3.89795Z" fill="#013941"/>
<path d="M242.922 101.647C239.872 101.647 237.399 99.1749 237.399 96.1249C237.399 93.0748 239.872 90.6023 242.922 90.6023C245.972 90.6023 248.444 93.0748 248.444 96.1249C248.444 99.1749 245.972 101.647 242.922 101.647Z" fill="#013941"/>
<path d="M223.04 91.7068C219.99 91.7068 217.518 89.2342 217.518 86.1842C217.518 83.1342 219.99 80.6616 223.04 80.6616C226.09 80.6616 228.563 83.1342 228.563 86.1842C228.563 89.2342 226.09 91.7068 223.04 91.7068Z" fill="#013941"/>
<path d="M203.159 81.2138C200.109 81.2138 197.637 78.7413 197.637 75.6913C197.637 72.6412 200.109 70.1687 203.159 70.1687C206.209 70.1687 208.682 72.6412 208.682 75.6913C208.682 78.7413 206.209 81.2138 203.159 81.2138Z" fill="#013941"/>
<path d="M182.726 70.7209C179.676 70.7209 177.203 68.2484 177.203 65.1983C177.203 62.1483 179.676 59.6758 182.726 59.6758C185.776 59.6758 188.248 62.1483 188.248 65.1983C188.248 68.2484 185.776 70.7209 182.726 70.7209Z" fill="#013941"/>
<path d="M162.844 60.228C159.794 60.228 157.322 57.7555 157.322 54.7054C157.322 51.6554 159.794 49.1829 162.844 49.1829C165.894 49.1829 168.367 51.6554 168.367 54.7054C168.367 57.7555 165.894 60.228 162.844 60.228Z" fill="#013941"/>
<path d="M142.963 50.2876C139.913 50.2876 137.441 47.815 137.441 44.765C137.441 41.715 139.913 39.2424 142.963 39.2424C146.013 39.2424 148.486 41.715 148.486 44.765C148.486 47.815 146.013 50.2876 142.963 50.2876Z" fill="#013941"/>
<path d="M123.082 39.7946C120.032 39.7946 117.559 37.3221 117.559 34.2721C117.559 31.222 120.032 28.7495 123.082 28.7495C126.132 28.7495 128.604 31.222 128.604 34.2721C128.604 37.3221 126.132 39.7946 123.082 39.7946Z" fill="#013941"/>
</svg>
