<svg width="60" height="61" viewBox="0 0 60 61" fill="none" xmlns="http://www.w3.org/2000/svg">
<path d="M29.9938 2.06152C21.1282 2.06152 15.3809 7.71472 8.58428 9.77552C5.81967 10.6155 4.43737 11.0327 3.87737 11.6235C3.31738 12.2115 3.15527 13.0767 2.82812 14.8015C-0.679224 33.2703 6.98387 50.3447 25.2574 56.9919C27.2174 57.7059 28.1989 58.0615 30.0026 58.0615C31.8064 58.0615 32.7908 57.7031 34.7538 56.9891C53.0244 50.3447 60.6786 33.2703 57.1713 14.8015C56.8441 13.0767 56.6791 12.2115 56.1191 11.6207C55.5591 11.0299 54.1797 10.6127 51.4151 9.77552C44.6156 7.71472 38.8594 2.06152 29.9938 2.06152Z" fill="#013941" stroke="#013941" stroke-width="4" stroke-linecap="round" stroke-linejoin="round"/>
<path d="M25.1198 23.9481C25.1198 23.7882 25.1422 22.866 25.1478 21.7093C25.1478 20.6485 25.0525 19.6304 25.5855 18.6975C27.5774 14.9289 33.3006 15.3127 34.7146 19.1506C34.9587 19.7823 34.9755 20.7818 34.9671 21.7093C34.9587 22.89 34.9839 23.9481 34.9839 23.9481M25.3639 25.0702C22.3339 25.0702 20.819 27.149 20.4823 28.4284C20.1456 29.7077 20.1456 34.3452 20.3476 36.2642C21.021 38.6629 22.7043 39.6544 24.3539 39.9742C25.8689 40.1021 32.2654 40.0542 34.117 40.0542C36.8103 40.1022 38.8303 39.1427 39.6719 36.2642C39.8403 35.3047 40.0086 30.0275 39.5878 28.4284C38.6956 25.8697 36.4737 25.0702 34.7904 25.0702H25.3639Z" stroke="#D4CBF5" stroke-width="3" stroke-linecap="round" stroke-linejoin="round"/>
</svg>
