<svg width="64" height="64" viewBox="0 0 64 64" fill="none" xmlns="http://www.w3.org/2000/svg">
<path d="M10.3109 25.1094L11.3391 26.9031C12.2469 28.4891 13.7344 29.6594 15.4953 30.1625L21.8281 31.9672C23.7094 32.5031 25 34.2203 25 36.1781V40.5422C25 41.7453 25.6781 42.8391 26.75 43.375C27.8219 43.9109 28.5 45.0047 28.5 46.2078V50.4734C28.5 52.1797 30.1297 53.4156 31.7703 52.9453C33.5312 52.4422 34.8984 51.0312 35.3469 49.2484L35.6531 48.0234C36.1125 46.175 37.3156 44.5891 38.9672 43.6484L39.8531 43.1453C41.4937 42.2156 42.5 40.4656 42.5 38.5844V37.6766C42.5 36.2875 41.9422 34.9531 40.9578 33.9688L40.5312 33.5422C39.5469 32.5578 38.2125 32 36.8234 32H32.1094C30.8953 32 29.6922 31.6828 28.6313 31.0813L24.8578 28.9266C24.3875 28.6531 24.0266 28.2156 23.8516 27.7016C23.5016 26.6516 23.9719 25.5141 24.9672 25.0219L25.6125 24.6938C26.3344 24.3328 27.1766 24.2672 27.9422 24.5297L30.4797 25.3719C31.3766 25.6672 32.3609 25.3281 32.875 24.5516C33.3891 23.7859 33.3344 22.7688 32.7437 22.0578L31.2563 20.275C30.1625 18.9625 30.1734 17.0484 31.2891 15.7578L33.0063 13.7562C33.9688 12.6297 34.1219 11.0219 33.3891 9.74219L33.1266 9.28281C32.7437 9.26094 32.3719 9.25 31.9891 9.25C21.8391 9.25 13.2312 15.9109 10.3109 25.1094ZM54.75 32C54.75 27.975 53.7 24.1906 51.8625 20.8984L49.0625 22.025C47.3453 22.7141 46.4594 24.6281 47.0391 26.3781L48.8875 31.9234C49.2703 33.0609 50.2 33.925 51.3594 34.2094L54.5422 35.0078C54.6734 34.0234 54.7391 33.0172 54.7391 32H54.75ZM4 32C4 24.5739 6.94999 17.452 12.201 12.201C17.452 6.94999 24.5739 4 32 4C39.4261 4 46.548 6.94999 51.799 12.201C57.05 17.452 60 24.5739 60 32C60 39.4261 57.05 46.548 51.799 51.799C46.548 57.05 39.4261 60 32 60C24.5739 60 17.452 57.05 12.201 51.799C6.94999 46.548 4 39.4261 4 32Z" fill="#013941"/>
</svg>
